{
  "accessors": [
    {
      "bufferView": 2,
      "componentType": 5126,
      "count": 4586,
      "max": [
        71.61019897460938,
        18.23889923095703,
        182.28399658203125
      ],
      "min": [
        -71.61019897460938,
        -13.378100395202637,
        0.09303610026836395
      ],
      "type": "VEC3"
    },
    {
      "bufferView": 2,
      "byteOffset": 55032,
      "componentType": 5126,
      "count": 4586,
      "max": [
        0.9994211196899414,
        0.999849259853363,
        0.9999272227287292
      ],
      "min": [
        -0.9994211196899414,
        -0.9977549910545349,
        -0.9997396469116211
      ],
      "type": "VEC3"
    },
    {
      "bufferView": 0,
      "componentType": 5125,
      "count": 6798,
      "type": "SCALAR"
    },
    {
      "bufferView": 2,
      "byteOffset": 110064,
      "componentType": 5126,
      "count": 408,
      "max": [
        29.092100143432617,
        15.621999740600586,
        152.41799926757813
      ],
      "min": [
        -29.092100143432617,
        -11.2052001953125,
        -0.09370239824056625
      ],
      "type": "VEC3"
    },
    {
      "bufferView": 2,
      "byteOffset": 114960,
      "componentType": 5126,
      "count": 408,
      "max": [
        0.9912392497062683,
        0.6355659365653992,
        0.9385928511619568
      ],
      "min": [
        -0.9912392497062683,
        -0.9645891189575195,
        -0.9973687529563904
      ],
      "type": "VEC3"
    },
    {
      "bufferView": 1,
      "componentType": 5126,
      "count": 408,
      "max": [
        1.0,
        1.0
      ],
      "min": [
        -1.0,
        0.0
      ],
      "type": "VEC2"
    },
    {
      "bufferView": 0,
      "byteOffset": 27192,
      "componentType": 5125,
      "count": 612,
      "type": "SCALAR"
    }
  ],
  "asset": {
    "extras": {
      "author": "nguyenducthanhst16 (https://sketchfab.com/nguyenducthanhst16)",
      "license": "CC-BY-4.0 (http://creativecommons.org/licenses/by/4.0/)",
      "source": "https://sketchfab.com/3d-models/topology-practice-0adf49f7cad14f8080d236d90a293b90",
      "title": "TOPOLOGY PRACTICE"
    },
    "generator": "Sketchfab-12.67.0",
    "version": "2.0"
  },
  "bufferViews": [
    {
      "buffer": 0,
      "byteLength": 29640,
      "name": "floatBufferViews",
      "target": 34963
    },
    {
      "buffer": 0,
      "byteLength": 3264,
      "byteOffset": 29640,
      "byteStride": 8,
      "name": "floatBufferViews",
      "target": 34962
    },
    {
      "buffer": 0,
      "byteLength": 119856,
      "byteOffset": 32904,
      "byteStride": 12,
      "name": "floatBufferViews",
      "target": 34962
    }
  ],
  "buffers": [
    {
      "byteLength": 152760,
      "uri": "scene.bin"
    }
  ],
  "materials": [
    {
      "doubleSided": true,
      "emissiveFactor": [
        0.005105601392581428,
        0.1372424614588271,
        0.004161193047272835
      ],
      "name": "Scene_-_Root",
      "pbrMetallicRoughness": {
        "baseColorFactor": [
          0.778509573,
          0.6855689062,
          0.5290856811,
          1.0
        ],
        "metallicFactor": 0.5458269817,
        "roughnessFactor": 0.6
      }
    }
  ],
  "meshes": [
    {
      "name": "Object_0",
      "primitives": [
        {
          "attributes": {
            "NORMAL": 1,
            "POSITION": 0
          },
          "indices": 2,
          "material": 0,
          "mode": 4
        }
      ]
    },
    {
      "name": "Object_1",
      "primitives": [
        {
          "attributes": {
            "NORMAL": 4,
            "POSITION": 3,
            "TEXCOORD_0": 5
          },
          "indices": 6,
          "material": 0,
          "mode": 4
        }
      ]
    }
  ],
  "nodes": [
    {
      "children": [
        1
      ],
      "matrix": [
        0.01804382912814617,
        0.0,
        0.0,
        0.0,
        0.0,
        4.006534910093989e-18,
        -0.01804382912814617,
        0.0,
        0.0,
        0.01804382912814617,
        4.006534910093989e-18,
        0.0,
        0.0,
        0.0,
        0.0,
        1.0
      ],
      "name": "Sketchfab_model"
    },
    {
      "children": [
        2,
        3
      ],
      "name": "76597ff441d849a3a3a6838e7843fc8f.obj.cleaner.materialmerger.gles"
    },
    {
      "mesh": 0,
      "name": "Object_2"
    },
    {
      "mesh": 1,
      "name": "Object_3"
    }
  ],
  "scene": 0,
  "scenes": [
    {
      "name": "Sketchfab_Scene",
      "nodes": [
        0
      ]
    }
  ]
}
